<svg width="92" height="92" viewBox="0 0 92 92" fill="none" xmlns="http://www.w3.org/2000/svg">
<rect x="1" y="1" width="90" height="90" rx="4" fill="#FFE141"/>
<rect x="1" y="1" width="90" height="90" rx="4" stroke="#E9ECF5"/>
<path d="M18.9225 41.0648C20.1224 41.0648 21.1938 41.3682 22.1366 41.9752C23.088 42.5734 23.8337 43.4229 24.3737 44.524C24.8965 45.5817 25.1579 46.8258 25.1579 48.2562C25.1579 49.6434 24.8965 50.8831 24.3737 51.9756C23.8508 53.0678 23.1137 53.9219 22.1623 54.5373C21.2024 55.1616 20.1224 55.4737 18.9225 55.4737C18.0482 55.4737 17.2254 55.2916 16.454 54.9276C15.6826 54.5635 15.0226 54.0519 14.4741 53.3931V55.1485H10V36.5263H14.4741V43.1325C15.0226 42.4736 15.6826 41.9664 16.454 41.6109C17.2254 41.2468 18.0482 41.0648 18.9225 41.0648ZM17.5854 51.7154C18.2196 51.7154 18.7853 51.5681 19.2824 51.2734C19.7796 50.9786 20.1695 50.5668 20.4524 50.0379C20.7352 49.5177 20.8767 48.9239 20.8767 48.2562C20.8767 47.606 20.7352 47.0164 20.4524 46.4876C20.1695 45.9587 19.7796 45.5469 19.2824 45.2522C18.7853 44.9574 18.2196 44.8101 17.5854 44.8101C16.9854 44.8101 16.4497 44.9574 15.9783 45.2522C15.5069 45.5383 15.1383 45.9415 14.8726 46.4617C14.6069 46.9905 14.4741 47.5887 14.4741 48.2562C14.4741 48.9239 14.6069 49.522 14.8726 50.0509C15.1383 50.5711 15.5069 50.9786 15.9783 51.2734C16.4497 51.5681 16.9854 51.7154 17.5854 51.7154Z" fill="black"/>
<path d="M26.1052 55.4736V36.5263H30.8421V55.4736H26.1052Z" fill="black"/>
<path d="M31.7894 55.4737V41.2632H36.5263V55.4737H31.7894Z" fill="black"/>
<path d="M46.3994 41.2632C47.4047 41.2632 48.3103 41.4906 49.1165 41.9456C49.9225 42.3916 50.5566 43.0215 51.0185 43.8349C51.4623 44.6572 51.6842 45.5889 51.6842 46.63V55.4737H47.1738V47.6534C47.1738 47.146 47.0696 46.6956 46.8612 46.3018C46.6621 45.8994 46.3769 45.5889 46.0055 45.3701C45.6431 45.1516 45.2175 45.0422 44.7284 45.0422C44.2663 45.0422 43.8408 45.1516 43.4514 45.3701C43.0619 45.5802 42.7584 45.8689 42.541 46.2363C42.3146 46.5862 42.2014 46.9974 42.2014 47.4697L42.1743 55.4737H37.4736V41.578H42.1743V43.1658C42.6181 42.5709 43.2112 42.1073 43.954 41.775C44.6966 41.4338 45.5118 41.2632 46.3994 41.2632Z" fill="black"/>
<path d="M61.0548 47.5879L65.8948 55.4736H61.0548L58.2225 50.5121L56.9171 52.1395V55.4736H52.6316V36.5263H56.9171V46.9924L61.0303 41.4615H65.87L61.0548 47.5879Z" fill="black"/>
<path d="M31.7894 36.5263H36.5263V40.3157H31.7894V36.5263Z" fill="black"/>
<path d="M66.8421 55.4737V41.2632H71.5789V55.4737H66.8421Z" fill="#0C831F"/>
<path d="M81.1107 51.2506L82.0001 54.1573C81.5961 54.5482 81.085 54.8655 80.4662 55.1087C79.8561 55.352 79.2589 55.4736 78.6746 55.4736C77.8325 55.4736 77.0805 55.2869 76.419 54.9131C75.7572 54.5309 75.2416 54.0008 74.8721 53.3229C74.5026 52.6626 74.318 51.9023 74.318 51.0422V44.9555H72.5264V41.345H74.318V36.5263H78.5972V41.345H81.42V44.9555H78.5972V50.2081C78.5972 50.6511 78.7131 51.0117 78.9453 51.2898C79.1772 51.5679 79.4737 51.7069 79.8347 51.7069C80.0925 51.7069 80.3329 51.6677 80.5565 51.5896C80.7799 51.5114 80.9645 51.3985 81.1107 51.2506Z" fill="#0C831F"/>
<path d="M66.8421 36.5263H71.5789V40.3157H66.8421V36.5263Z" fill="#0C831F"/>
</svg>
