<svg width="52" height="48" viewBox="0 0 52 48" fill="none" xmlns="http://www.w3.org/2000/svg">
<path d="M3 40.3924H49.2743C50.2408 40.3924 51.0243 39.6089 51.0243 38.6424V3C51.0243 2.0335 50.2408 1.25 49.2743 1.25H3C2.0335 1.25 1.25 2.0335 1.25 3V38.6424C1.25 39.6089 2.0335 40.3924 3 40.3924Z" fill="#F2F6F9" stroke="#404040" stroke-width="1.5"/>
<path d="M8.54984 10.152H37.1999C37.659 10.152 38.031 9.76254 38.031 9.28211C38.031 8.80167 37.659 8.41217 37.1999 8.41217H8.54984C8.09075 8.41217 7.71875 8.80167 7.71875 9.28211C7.71875 9.76254 8.09075 10.152 8.54984 10.152V10.152Z" fill="#404040"/>
<path d="M43.7327 13.7032H8.55277C8.09368 13.7032 7.72168 14.0927 7.72168 14.5731C7.72168 15.0536 8.09368 15.4431 8.55277 15.4431H43.7328C44.1919 15.4431 44.5639 15.0536 44.5639 14.5731C44.5639 14.0927 44.1918 13.7032 43.7327 13.7032V13.7032Z" fill="#404040"/>
<path d="M28.5404 18.9939H8.55277C8.09368 18.9939 7.72168 19.3834 7.72168 19.8638C7.72168 20.3443 8.09368 20.7338 8.55277 20.7338H28.5404C28.9995 20.7338 29.3715 20.3443 29.3715 19.8638C29.3715 19.3834 28.9994 18.9939 28.5404 18.9939Z" fill="#404040"/>
<path d="M41.0862 48.0001L38.7037 46.8402L36.3213 48.0001V33.0372H41.0862V48.0001Z" fill="#F8ADB5"/>
<path d="M38.7026 35.93C37.8619 35.93 37.3114 34.4321 36.5803 34.1141C35.8225 33.7846 34.4258 34.4231 33.8547 33.8242C33.2836 33.2253 33.8925 31.7607 33.5782 30.966C33.275 30.1994 31.8467 29.6222 31.8467 28.7405C31.8467 27.859 33.275 27.2817 33.5782 26.515C33.8925 25.7203 33.2836 24.2557 33.8547 23.6568C34.4258 23.058 35.8225 23.6965 36.5802 23.367C37.3113 23.0491 37.8618 21.5511 38.7025 21.5511C39.5432 21.5511 40.0937 23.0491 40.8248 23.367C41.5826 23.6965 42.9793 23.058 43.5504 23.657C44.1215 24.2558 43.5126 25.7204 43.8269 26.5151C44.1301 27.2817 45.5584 27.859 45.5584 28.7406C45.5584 29.6221 44.1301 30.1994 43.8269 30.9661C43.5126 31.7608 44.1215 33.2254 43.5504 33.8243C42.9793 34.4231 41.5826 33.7846 40.8249 34.1141C40.0939 34.4321 39.5433 35.93 38.7026 35.93V35.93Z" fill="#EE5675"/>
<path d="M38.7041 31.2683C40.0379 31.2683 41.1191 30.1365 41.1191 28.7404C41.1191 27.3442 40.0379 26.2125 38.7041 26.2125C37.3703 26.2125 36.2891 27.3442 36.2891 28.7404C36.2891 30.1365 37.3703 31.2683 38.7041 31.2683Z" fill="#F8ADB5"/>
</svg>
