<svg width="56" height="47" viewBox="0 0 56 47" fill="none" xmlns="http://www.w3.org/2000/svg">
<line x1="51.7842" y1="20.2444" x2="51.7842" y2="32.202" stroke="#404040" stroke-linecap="round"/>
<path d="M49.7168 33.9784H54.3458V43.4722H49.7168V33.9784Z" fill="#FFC85E"/>
<path d="M44.163 22.7784V35.2956C44.163 35.8427 43.9036 36.3101 43.5418 36.5358L43.5412 36.5362L28.4377 45.9867L28.4376 45.9868C27.8747 46.3392 27.2091 46.3392 26.6462 45.9868L26.6461 45.9867L16.4508 39.6079L16.4507 39.6079L11.5428 36.5362L11.5421 36.5358C11.1803 36.3101 10.9209 35.8428 10.9209 35.2956V22.7784L27.2549 34.2306L27.5419 34.4318L27.829 34.2306L44.163 22.7784Z" fill="#278DB9" stroke="#404040"/>
<path d="M2.38539 16.6337L2.38543 16.6337L27.8476 0.545011C27.8477 0.544944 27.8478 0.544877 27.8479 0.54481C27.943 0.485063 28.0571 0.485063 28.1522 0.544811C28.1523 0.544878 28.1524 0.544944 28.1525 0.545011L53.6147 16.6337L53.6147 16.6337L55.3416 17.7247C55.3417 17.7247 55.3417 17.7247 55.3418 17.7248C55.5528 17.8583 55.5528 18.1976 55.3416 18.3311C55.3416 18.3311 55.3416 18.3311 55.3416 18.3311L28.1524 35.5108C28.0571 35.5708 27.9428 35.5708 27.8475 35.5108L0.658415 18.3311C0.658402 18.3311 0.658389 18.3311 0.658375 18.3311C0.44722 18.1976 0.447209 17.8583 0.658343 17.7248C0.658367 17.7247 0.658391 17.7247 0.658415 17.7247L2.38539 16.6337Z" fill="#39B0E4" stroke="#404040"/>
<path d="M52.0313 36.4012C53.3095 36.4012 54.3458 35.3166 54.3458 33.9786C54.3458 32.6406 53.3095 31.5559 52.0313 31.5559C50.753 31.5559 49.7168 32.6406 49.7168 33.9786C49.7168 35.3166 50.753 36.4012 52.0313 36.4012Z" fill="white"/>
<path d="M52.0313 36.4012C53.3095 36.4012 54.3458 35.3166 54.3458 33.9786C54.3458 32.6406 53.3095 31.5559 52.0313 31.5559C50.753 31.5559 49.7168 32.6406 49.7168 33.9786C49.7168 35.3166 50.753 36.4012 52.0313 36.4012Z" fill="#FFC85E"/>
</svg>
