<svg xmlns="http://www.w3.org/2000/svg" width="31" height="30" fill="none"><path fill="#FF7D56" fill-rule="evenodd" d="M29.102 22.781a1.655 1.655 0 00-2.13-.196l-3.267 2.488h-2.373a1.33 1.33 0 00.604-1.117c0-.733-.586-1.327-1.31-1.327h-2.433c-.464 0-.909-.187-1.237-.519l-3.1-3.154a2.896 2.896 0 00-2.06-.864h-5.08v8.393l2.63 1.612a6.93 6.93 0 003.623 1.025h8.628A6.942 6.942 0 0026 27.542l2.983-2.446c.71-.582.766-1.66.12-2.315z" clip-rule="evenodd" opacity=".2"/><path fill="#fff" d="M28.527 18.53H16.252a.585.585 0 01-.58-.59V.59c0-.326.26-.59.58-.59h12.275c.32 0 .58.264.58.59v17.35c0 .326-.26.59-.58.59z"/><rect width="7.5" height="6.458" x="19.689" y="3.472" fill="#FFC465" rx="1"/><path stroke="#263838" d="M20.599 3.306h5.82a.89.89 0 01.896.882v4.853a.89.89 0 01-.895.883h-5.821a.89.89 0 01-.896-.883V4.188a.89.89 0 01.896-.882z"/><path fill="#EBF0F2" fill-rule="evenodd" d="M15.998 18.419a.579.579 0 01-.59-.566V1.768L7.46 6.162a.553.553 0 00-.216.772l8.683 14.405c.163.27.524.363.807.207l5.655-3.127h-6.392z" clip-rule="evenodd"/><path fill="#26A69A" fill-rule="evenodd" d="M5.69 28.68H.448V15.884h5.24c.321 0 .58.255.58.57V28.11c0 .314-.259.57-.58.57z" clip-rule="evenodd"/><path fill="#263838" fill-rule="evenodd" d="M28.83 19.723c.646 0 1.172-.518 1.172-1.154V1.593c0-.636-.526-1.154-1.172-1.154H16.407c-.646 0-1.172.518-1.172 1.154V18.57c0 .636.526 1.154 1.172 1.154h4.154l-3.716 2.114-2.794-2.766a3.52 3.52 0 00-2.486-1.014H7.046v-1.018c0-.637-.525-1.155-1.172-1.155H.586A.582.582 0 000 16.46v12.962c0 .319.262.577.586.577h5.288c.647 0 1.172-.518 1.172-1.155v-.976L8.8 28.913A7.703 7.703 0 0012.745 30h8.673c1.74 0 3.442-.594 4.794-1.673l2.998-2.393c.47-.374.757-.93.789-1.524a2.09 2.09 0 00-.623-1.597 2.29 2.29 0 00-2.907-.246l-3.285 2.434a.572.572 0 00-.116.809.592.592 0 00.82.114l3.275-2.426a1.105 1.105 0 011.385.131.93.93 0 01.28.72.933.933 0 01-.355.688l-2.998 2.393a6.526 6.526 0 01-4.057 1.415h-8.673a6.518 6.518 0 01-3.339-.918l-2.36-1.409v-7.307h4.52c.625 0 1.214.24 1.655.676l3.118 3.086a2.346 2.346 0 001.657.676h2.3c.483 0 .877.388.877.865a.872.872 0 01-.878.865H15.88c-.405 0-.799-.115-1.138-.333l-1.88-1.205-.007-.004a.591.591 0 00-.811.168.572.572 0 00.17.799l1.889 1.21c.53.34 1.144.52 1.777.52h4.415c1.13 0 2.05-.906 2.05-2.02 0-1.114-.92-2.02-2.05-2.02h-2.262l4.872-2.77h5.925zM5.874 28.844H1.172V17.037h4.702v1.598l.001 8.18v2.029zM16.407 1.592H28.83v16.974H16.407V1.592z" clip-rule="evenodd"/><path fill="#263838" fill-rule="evenodd" d="M12.325 16.475a.633.633 0 00.54.288.658.658 0 00.311-.077c.298-.16.4-.512.228-.789L7.962 7.163l5.608-3c.297-.16.4-.512.227-.788a.65.65 0 00-.85-.211l-5.608 3c-.595.318-.8 1.025-.456 1.576l5.442 8.735zM26.275 12.354h-6.874c-.328 0-.593.198-.593.441 0 .244.265.442.593.442h6.874c.328 0 .593-.198.593-.442 0-.243-.265-.44-.593-.44zM19.256 15a.441.441 0 00-.448.441.441.441 0 00.448.442.441.441 0 00.448-.441.441.441 0 00-.448-.441zM26.298 15h-4.234c-.315 0-.57.198-.57.442s.255.441.57.441h4.234c.314 0 .57-.197.57-.441s-.256-.441-.57-.441zM3.134 21.617c-.247 0-.448.268-.448.597v2.336c0 .33.2.597.448.597.247 0 .448-.267.448-.597v-2.336c0-.33-.2-.597-.448-.597zM3.134 26.032a.44.44 0 00-.317.753.455.455 0 00.634 0 .44.44 0 00-.317-.753z" clip-rule="evenodd"/></svg>