<svg xmlns="http://www.w3.org/2000/svg" xmlns:xlink="http://www.w3.org/1999/xlink" width="46" height="40"><g fill="none" fill-rule="evenodd"><g transform="translate(-1177 -422)"><g transform="translate(1018 398)"><g transform="translate(159 24)"><path fill="#38B0E4" d="M42.36 37.6h1.88V22.725h-1.88zM38.164 21v17.907H11.452V21l3.106-2.172-.203 5.137 7.877 7.58 1.83-1.149a1.504 1.504 0 011.617.014l1.638 1.069 5.972-6.123 4.72-4.462.155.106"/><path fill="#24CE9F" d="M45.634 13.452h-9.368v-.394h8.964V3.05L43.174.923h-8.466V6.58h-.404V.528h9.044l2.286 2.365v10.56"/><path fill="#24CE9F" d="M45.432 3.44h-2.576V.725h.403v2.32h2.173v.395"/><path fill="#313D84" d="M37.634 4.569l-1.04-1.018.285-.28.755.74 1.268-1.241.285.28-1.553 1.519M37.634 7.55l-1.04-1.017.285-.28.755.74 1.268-1.241.285.279-1.553 1.52M37.634 10.59l-1.04-1.017.285-.28.755.74 1.268-1.241.285.279-1.553 1.52M40.247 7.235h3.285V6.84h-3.285zM40.247 4.635h3.285V4.24h-3.285zM40.247 9.856h3.245v-.395h-3.245zM6.403 13.075l-.255-.307 1.109-.875.253.308-1.107.874M4.549 10.828l-.253-.307 1.107-.874.254.307-1.108.874"/><path fill="#313D84" d="M2.728 10.874l3.036 3.68.95-.748-3.037-3.68-.949.748zm2.975 4.236l-3.542-4.295L3.739 9.57l3.542 4.295-1.578 1.245z"/><path fill="#313D84" d="M2.153 16.119a.826.826 0 01-.64-.298L.438 14.516a.792.792 0 01.124-1.128l2.346-1.895.257.305-2.347 1.896a.401.401 0 00-.065.574l1.075 1.305a.425.425 0 00.587.061L4.76 13.74l.257.305L2.67 15.94a.83.83 0 01-.516.179"/><path fill="#38B0E4" d="M11.391 2.568c-1.065 0-2.09.353-2.929 1.016a4.514 4.514 0 00-.703 6.435 4.675 4.675 0 003.144 1.677 4.722 4.722 0 003.435-.989 4.515 4.515 0 00.703-6.435 4.681 4.681 0 00-3.144-1.677 4.862 4.862 0 00-.506-.027zm.018 9.55a5.29 5.29 0 01-.55-.03 5.084 5.084 0 01-3.415-1.82 4.905 4.905 0 01.764-6.991 5.13 5.13 0 013.732-1.075 5.08 5.08 0 013.415 1.822 4.904 4.904 0 01-.764 6.99 5.112 5.112 0 01-3.182 1.104zm-.015-11.064a6.285 6.285 0 00-3.906 1.349 6.021 6.021 0 00-2.283 4.095 5.964 5.964 0 001.347 4.474c2.157 2.616 6.086 3.026 8.76.916a6.02 6.02 0 002.281-4.095 5.963 5.963 0 00-1.345-4.474c-1.23-1.49-3.035-2.265-4.854-2.265zm.012 12.578c-1.937 0-3.86-.825-5.169-2.412a6.349 6.349 0 01-1.433-4.764 6.409 6.409 0 012.43-4.36 6.69 6.69 0 014.87-1.403 6.629 6.629 0 014.458 2.378 6.35 6.35 0 011.434 4.764 6.41 6.41 0 01-2.431 4.36 6.694 6.694 0 01-4.159 1.437zM28.163 23.99a.705.705 0 00-.712.696c0 .383.319.696.712.696a.705.705 0 00.711-.696.705.705 0 00-.711-.697zm0 1.787c-.615 0-1.116-.49-1.116-1.091 0-.602.5-1.091 1.116-1.091.615 0 1.115.49 1.115 1.09 0 .602-.5 1.092-1.115 1.092zM41.942 37.628h2.096V22.744h-2.096v14.884zm2.298.394h-2.5a.2.2 0 01-.202-.197V22.547a.2.2 0 01.202-.198h2.5a.2.2 0 01.202.198v15.278a.2.2 0 01-.202.197z"/><path fill="#313D84" d="M41.942 39.461h2.096v-1.439h-2.096v1.44zm-.404.395h2.904v-2.228h-2.904v2.228zM42.024 22.35h1.932l-.966-2.73-.966 2.73zm2.216.394h-2.5a.201.201 0 01-.164-.083.194.194 0 01-.027-.179l1.25-3.53a.202.202 0 01.191-.132c.086 0 .163.053.19.132l1.25 3.53a.194.194 0 01-.026.18.203.203 0 01-.164.082z"/><path fill="#313D84" d="M42.788 19.628h.404v-1.867h-.404zM38.214 38.809l-13.047-8.962a1.695 1.695 0 00-1.91.001l-13.003 8.96-.232-.322 13.003-8.96a2.105 2.105 0 012.373-.002l13.047 8.962-.23.323"/><path fill="#313D84" d="M38.628 38.954H9.961v-19.25l3.724-2.56.232.324-3.552 2.442v18.65h27.86V19.91l-3.115-2.133.232-.324 3.286 2.251v19.25"/><path fill="#313D84" d="M27.148 30.903l-.284-.28L38.19 19.639l.283.28-11.324 10.984M21.179 30.766L9.996 19.92l.284-.28 11.183 10.846-.284.28M34.693 22.364h-.403V7.84H18.833v-.395h15.86v14.92M14.254 21.984h.404v-8.192h-.404z"/><path fill="#313D84" d="M19.781 11.687h.538v-.395h-.538v.395zm1.076 0h.539v-.395h-.539v.395zm1.077 0h.538v-.395h-.538v.395zm1.076 0h.538v-.395h-.538v.395zm1.076 0h.538v-.395h-.538v.395zm1.077 0h.538v-.395h-.538v.395zm1.076 0h.538v-.395h-.538v.395zm1.076 0h.538v-.395h-.538v.395zm1.076 0h.539v-.395h-.539v.395zm1.077 0h.538v-.395h-.538v.395zm1.076 0h.538v-.395h-.538v.395zM17.845 14.406h13.357v-.395H17.845zM23.104 17.125h8.098v-.395h-8.098zM17.845 17.125h3.05v-.395h-3.05zM17.845 19.843h13.357v-.395H17.845zM17.924 22.562h6.59v-.395h-6.59z"/></g></g></g></g></svg>