<svg width="44" height="46" viewBox="0 0 44 46" fill="none" xmlns="http://www.w3.org/2000/svg">
<path d="M34.7825 1.14453H1.62305V44.8547H25.739L34.7825 35.4344V1.14453Z" fill="white"/>
<path d="M5.01172 41.4633L6.51896 37.3184L9.15665 39.956L5.01172 41.4633Z" fill="#404040"/>
<path d="M35.2431 4.72758C36.126 3.84466 37.5575 3.84466 38.4405 4.72758L41.6378 7.92493C42.5208 8.80786 42.5207 10.2394 41.6378 11.1223L38.1642 14.5959L31.7695 8.20123L35.2431 4.72758Z" fill="#FF6E6E"/>
<path d="M31.418 8.64355L37.8127 15.0383L35.5342 17.3167L29.1395 10.922L31.418 8.64355Z" fill="#F2EBD9"/>
<path d="M28.9141 11.083L35.3278 17.4967L15.65 37.1745L9.23627 30.7608L28.9141 11.083Z" fill="#39B0E4"/>
<path d="M6.52148 37.3187L8.78235 30.9129C10.591 30.0086 12.0481 32.797 12.5505 34.3042C14.6606 34.3042 15.4394 36.3139 15.565 37.3187L9.15917 39.9564L6.52148 37.3187Z" fill="#FFB74C"/>
<path fill-rule="evenodd" clip-rule="evenodd" d="M0.869141 0.390625H34.7822C35.1984 0.390625 35.5358 0.728034 35.5358 1.14425C35.5358 1.56046 35.1984 1.89787 34.7822 1.89787H2.37639V44.1008H24.9851V35.0573H34.0286V22.6225C34.0286 22.2063 34.366 21.8689 34.7822 21.8689C35.1984 21.8689 35.5358 22.2063 35.5358 22.6225V36.1231L26.0509 45.608H0.869141V0.390625ZM32.9628 36.5645H26.4923V43.035L32.9628 36.5645Z" fill="#404040"/>
<path fill-rule="evenodd" clip-rule="evenodd" d="M34.1113 4.51694C34.8231 3.80515 35.7885 3.40527 36.7951 3.40527C37.7493 3.40527 38.6684 3.76464 39.3695 4.41182L40.9449 5.866C40.969 5.88827 40.9916 5.91209 41.0127 5.93731L42.2249 7.39197C42.7718 8.04833 43.0714 8.87569 43.0714 9.73008C43.0714 10.7067 42.6802 11.6427 41.9852 12.3289L15.9241 38.0618C15.8494 38.1356 15.76 38.193 15.6618 38.2302L5.28069 42.1679C5.0059 42.2721 4.69558 42.2071 4.48575 42.0013C4.27591 41.7955 4.20485 41.4865 4.30369 41.2098L8.07181 30.659C8.10934 30.554 8.16973 30.4585 8.24864 30.3796L34.1113 4.51694ZM36.7951 4.91252C36.1883 4.91252 35.6062 5.1536 35.1771 5.58272L32.5503 8.20955L38.2448 13.9041L40.9262 11.2564C41.3344 10.8534 41.5641 10.3037 41.5641 9.73008C41.5641 9.22829 41.3882 8.74238 41.067 8.35689L39.8863 6.94009L38.3472 5.51934C37.9245 5.12918 37.3704 4.91252 36.7951 4.91252ZM37.1723 14.9631L31.4845 9.27534L29.9659 10.7939L35.644 16.4721L37.1723 14.9631ZM34.5715 17.5311L32.2704 15.23L29.2854 18.215C28.9911 18.5093 28.514 18.5093 28.2197 18.215C27.9253 17.9206 27.9253 17.4435 28.2197 17.1492L31.2046 14.1642L28.9001 11.8597L10.2515 30.5084C10.6621 30.59 11.1895 30.7475 11.5753 31.1333C12.0816 31.6396 12.2817 32.3845 12.4098 32.8648C12.4197 32.9018 12.4292 32.9377 12.4384 32.9725L25.582 19.8289C25.8763 19.5346 26.3534 19.5346 26.6478 19.8289C26.9421 20.1232 26.9421 20.6004 26.6478 20.8947L13.4962 34.0462C13.5021 34.0478 13.5081 34.0493 13.514 34.0509C13.5501 34.0605 13.5873 34.0704 13.6258 34.0806L13.6385 34.084C14.1121 34.2104 14.8492 34.4072 15.3434 34.9014C15.6017 35.1596 15.7335 35.4729 15.8081 35.7376C15.8326 35.8244 15.8525 35.912 15.8689 35.9981L34.5715 17.5311ZM14.4768 37.0677C14.4653 36.9666 14.4562 36.8632 14.4479 36.7701C14.4436 36.7221 14.4396 36.6768 14.4356 36.636C14.416 36.4346 14.3936 36.275 14.3574 36.1464C14.3211 36.0176 14.2856 35.9752 14.2776 35.9672C14.1144 35.8039 13.792 35.685 13.237 35.5369C13.2043 35.5281 13.1706 35.5192 13.1361 35.5101C12.9192 35.4527 12.6717 35.3873 12.4512 35.309C12.2027 35.2208 11.8866 35.0834 11.6399 34.8367C11.3946 34.5913 11.2609 34.2742 11.1763 34.0313C11.1032 33.8212 11.0406 33.5834 10.9852 33.3731C10.9744 33.332 10.9638 33.2919 10.9535 33.2533C10.8074 32.7057 10.6839 32.3734 10.5095 32.199C10.4107 32.1002 10.1826 32.0183 9.70393 31.943C9.65943 31.9359 9.61083 31.9287 9.55973 31.921C9.45858 31.9059 9.34768 31.8893 9.23966 31.8704L7.36387 37.1227L9.28006 39.0388L14.4768 37.0677ZM7.73467 39.625L6.80293 38.6933L6.27202 40.1798L7.73467 39.625Z" fill="#404040"/>
</svg>
