<svg width="51" height="53" viewBox="0 0 51 53" fill="none" xmlns="http://www.w3.org/2000/svg">
<path d="M47.9226 44.9463L47.9561 44.9508H47.9899C48.2824 44.9508 48.5296 44.8221 48.7225 44.6538C48.9122 44.4882 49.0715 44.2666 49.2076 44.0214C49.4799 43.5309 49.7095 42.8541 49.8963 42.0608C50.2718 40.4662 50.5001 38.2889 50.5001 35.9026C50.5001 33.5163 50.2718 31.339 49.8963 29.7444C49.7095 28.9511 49.4799 28.2743 49.2076 27.7838C49.0715 27.5386 48.9122 27.317 48.7225 27.1514C48.5296 26.9831 48.2824 26.8544 47.9899 26.8544H47.9564L47.9233 26.8588C40.2586 27.8894 32.5163 28.4479 24.7569 28.5298L23.9392 28.5385L24.3195 29.2624C24.4069 29.4287 24.441 29.683 24.3893 30.0868C24.3381 30.4871 24.214 30.9578 24.059 31.5202C24.0447 31.5721 24.0302 31.6246 24.0155 31.6777C23.7191 32.7496 23.3524 34.0752 23.3676 35.5061L23.3703 35.7517L23.5662 35.8998C25.4902 37.3533 25.9279 39.7001 24.697 41.559L24.3593 42.0691L24.9264 42.2986L27.419 43.3072L27.5039 43.3416L27.5953 43.3436C34.4053 43.4966 41.1958 44.032 47.9226 44.9463Z" fill="#F2F6F9" stroke="#404040"/>
<path d="M13.7638 14.5847L1.74583 10.0901C1.74552 10.09 1.74522 10.0899 1.74491 10.0898C1.61573 10.0402 1.51172 9.90166 1.51172 9.72637C1.51172 9.55107 1.61575 9.41248 1.74495 9.36295C1.74524 9.36284 1.74553 9.36273 1.74583 9.36262L25.3773 0.522024C25.3776 0.521925 25.3779 0.521826 25.3781 0.521728C25.4571 0.492745 25.5422 0.492757 25.6212 0.521766C25.6214 0.521851 25.6217 0.521937 25.6219 0.522024L49.2534 9.36262C49.2537 9.36273 49.254 9.36285 49.2543 9.36296C49.3835 9.4125 49.4875 9.55108 49.4875 9.72637C49.4875 9.90168 49.3835 10.0403 49.2543 10.0898C49.254 10.0899 49.2537 10.09 49.2534 10.0901L43.8495 12.1141L43.8493 12.1142L41.5099 12.9893L41.5095 12.9895L37.2356 14.5847H13.7638Z" fill="#278DB9" stroke="#404040"/>
<path d="M3.02195 45.5313L2.73346 44.5795L2.5958 44.606L2.68357 45.5969C2.79873 45.5985 2.91424 45.5766 3.02195 45.5313ZM2.69729 44.597L2.69513 44.7544L2.63422 44.6095C2.65581 44.6005 2.67718 44.5967 2.69729 44.597Z" fill="#F2F6F9" stroke="#404040"/>
<path d="M2.75648 27.9256L2.93581 26.945C2.86161 26.9252 2.78548 26.9138 2.70899 26.9108L2.59079 27.9006C2.64556 27.9116 2.70087 27.9199 2.75648 27.9256Z" fill="#F2F6F9" stroke="#404040"/>
<path d="M4.33926 27.1509L3.76628 27.0668L3.7666 27.6459L3.7758 44.4515L3.77611 45.029L4.34761 44.9461C11.0699 43.9704 17.8562 43.4252 24.6586 43.3144L24.7557 43.3128L24.8451 43.275L27.1161 42.3152L27.6475 42.0906L27.3496 41.5965C26.4414 40.0901 26.5104 38.2414 27.532 36.7957L27.6164 36.6764L27.6232 36.5305C27.6329 36.3217 27.6329 36.1148 27.6329 35.913V35.9073C27.6329 34.27 27.024 32.7676 26.3666 31.5443C26.0367 30.9304 25.6885 30.3762 25.391 29.9061L25.3564 29.8514C25.068 29.3956 24.8452 29.0436 24.7142 28.7734L24.5801 28.4971L24.2731 28.4917C17.5792 28.3738 10.924 28.1181 4.33926 27.1509Z" fill="#F2F6F9" stroke="#404040"/>
<path d="M14.1719 20.7219V11.4955C14.1719 11.4732 14.1797 11.4089 14.2817 11.2969C14.3864 11.1821 14.5645 11.0474 14.8358 10.9035C15.3775 10.6162 16.1942 10.3423 17.2457 10.1066C19.3405 9.63714 22.2587 9.34283 25.4982 9.34283C28.7376 9.34283 31.6558 9.63714 33.7506 10.1066C34.8021 10.3423 35.6189 10.6162 36.1606 10.9035C36.4319 11.0474 36.6099 11.1821 36.7146 11.2969C36.8167 11.4089 36.8245 11.4732 36.8245 11.4955V20.7219H14.1719Z" fill="#39B0E4" stroke="#404040"/>
<path d="M43.2364 14.9738C42.7698 14.9738 42.3916 14.5779 42.3916 14.0895V8.28842C42.3916 7.80003 42.7698 7.40411 43.2364 7.40411C43.703 7.40411 44.0812 7.80003 44.0812 8.28842V14.0895C44.0812 14.5779 43.703 14.9738 43.2364 14.9738Z" fill="#404040"/>
<path d="M41.5479 15.8572V18.5102C41.5479 18.9985 41.9261 19.3945 42.3927 19.3945H44.0823C44.5489 19.3945 44.9271 18.9985 44.9271 18.5102V15.8572C44.9271 14.8805 44.1707 14.0886 43.2375 14.0886C42.3043 14.0886 41.5479 14.8805 41.5479 15.8572Z" fill="#FFC85E"/>
<path d="M36.8245 21.2208C36.8245 21.2425 36.8169 21.3066 36.7148 21.4184C36.6102 21.5331 36.4321 21.6678 36.1608 21.8116C35.6192 22.0989 34.8026 22.3728 33.7512 22.6087C31.6565 23.0785 28.7384 23.3735 25.4982 23.3735C22.2579 23.3735 19.3398 23.0785 17.2451 22.6087C16.1938 22.3728 15.3771 22.0989 14.8355 21.8116C14.5642 21.6678 14.3862 21.5331 14.2815 21.4184C14.1794 21.3066 14.1719 21.2425 14.1719 21.2208C14.1719 21.1991 14.1794 21.1351 14.2815 21.0232C14.3862 20.9085 14.5642 20.7739 14.8355 20.63C15.3771 20.3428 16.1938 20.0688 17.2451 19.833C19.3398 19.3632 22.2579 19.0682 25.4982 19.0682C28.7384 19.0682 31.6565 19.3632 33.7512 19.833C34.8026 20.0688 35.6192 20.3428 36.1608 20.63C36.4321 20.7739 36.6102 20.9085 36.7148 21.0232C36.8169 21.1351 36.8245 21.1991 36.8245 21.2208Z" fill="#278DB9" stroke="#404040"/>
<path d="M2.68555 45.595C2.79494 45.5961 2.90261 45.5736 3.00164 45.5296C3.23527 45.4375 3.40814 45.2571 3.53439 45.0803C3.66948 44.8911 3.78616 44.6567 3.88883 44.3971C4.09458 43.8768 4.27065 43.1861 4.41496 42.3801C4.70443 40.7633 4.87894 38.6084 4.87894 36.2528C4.87894 33.8882 4.7023 31.7286 4.41063 30.1105C4.26524 29.3039 4.08803 28.6134 3.88131 28.0938C3.77817 27.8346 3.66095 27.6007 3.52522 27.4121C3.39418 27.23 3.2127 27.0438 2.96541 26.9567L2.88478 26.9283H2.82991C2.77921 26.9148 2.72605 26.9086 2.67197 26.9108C2.37301 26.917 2.14238 27.0797 1.98414 27.2497C1.82228 27.4235 1.6897 27.652 1.57771 27.9002C1.35228 28.3999 1.16127 29.0917 1.00519 29.9074C0.69146 31.5471 0.5 33.7906 0.5 36.2528C0.5 38.715 0.69146 40.9585 1.00519 42.5982C1.16127 43.4139 1.35228 44.1057 1.57771 44.6054C1.6897 44.8536 1.82228 45.0821 1.98414 45.2559C2.14477 45.4285 2.37999 45.5936 2.68555 45.595ZM2.68555 45.595C2.68419 45.595 2.68284 45.5949 2.68149 45.5949L2.68947 45.095M2.68555 45.595C2.68685 45.595 2.68816 45.595 2.68947 45.595V45.095M2.68947 45.095C2.7303 45.0956 2.77074 45.0866 2.80773 45.0685L2.68947 27.4106C1.76026 27.4106 1 31.3719 1 36.2528C1 41.1337 1.76026 45.095 2.68947 45.095Z" fill="#FFC85E" stroke="#404040"/>
<path d="M22.1422 36.1781C22.1518 35.9467 22.1518 35.7153 22.1518 35.4738C22.2582 32.7217 21.8936 29.9718 21.0752 27.354C22.6516 27.4043 24.2954 27.4244 25.9968 27.4244C27.2752 27.4244 28.5248 27.4144 29.736 27.3842C30.512 29.8387 30.8699 32.4168 30.7934 35.0009L22.1422 36.1781Z" fill="#F25C6B"/>
<path d="M26.9545 45.5344L24.3976 51.9437C24.2554 52.3238 23.908 52.5763 23.5181 52.5829C23.1282 52.5895 22.7731 52.3489 22.6193 51.9739L21.9176 50.2835L20.3027 51.008C19.9475 51.171 19.5333 51.0928 19.2549 50.8102C18.9765 50.5276 18.8891 50.0967 19.0338 49.7201L21.4754 43.5824L21.9272 42.4555L26.9545 45.5344Z" fill="#F25C6B"/>
<path d="M31.9863 42.4555L32.4573 43.6428L34.8796 49.7201C35.0244 50.0967 34.937 50.5276 34.6586 50.8102C34.3801 51.0928 33.966 51.171 33.6108 51.008L31.9959 50.2835L31.2942 51.9739C31.1403 52.3489 30.7853 52.5895 30.3954 52.5829C30.0055 52.5763 29.6581 52.3238 29.5159 51.9437L26.959 45.5344L31.9863 42.4555Z" fill="#F25C6B"/>
<path d="M32.7234 39.4979C32.7234 42.8321 30.1412 45.535 26.9559 45.535C23.7707 45.535 21.1885 42.8321 21.1885 39.4979C21.1885 36.1638 23.7707 33.4609 26.9559 33.4609C28.3736 33.4522 29.7426 34.0017 30.7913 35.0004C32.0216 36.1403 32.7252 37.7781 32.7234 39.4979Z" fill="#F8ADB5"/>
</svg>
