<svg width="92" height="92" viewBox="0 0 92 92" fill="none" xmlns="http://www.w3.org/2000/svg">
<rect x="1" y="1" width="90" height="90" rx="4" fill="black"/>
<rect x="1" y="1" width="90" height="90" rx="4" stroke="#E9ECF5"/>
<g clip-path="url(#clip0_1953_6867)">
<path d="M14.1999 52.3994C14.5084 53.2137 14.9355 53.91 15.4813 54.4883C16.0271 55.0666 16.6737 55.5092 17.4211 55.816C18.1686 56.1229 18.9812 56.2763 19.8592 56.2763C20.7135 56.2763 21.5143 56.1169 22.2618 55.7982C23.0093 55.4795 23.6618 55.0311 24.2194 54.4529C24.777 53.8746 25.21 53.1842 25.5185 52.3817C25.827 51.5791 25.9812 50.6823 25.9812 49.6909V34.3957H29.7185V59.1795H26.0168V56.8781C25.1863 57.7514 24.2075 58.4241 23.0804 58.8963C21.9532 59.3683 20.7372 59.6043 19.4321 59.6043C18.1033 59.6043 16.8635 59.3742 15.7126 58.9139C14.5618 58.4536 13.5652 57.7987 12.7229 56.9489C11.8806 56.0991 11.2161 55.0784 10.7297 53.8864C10.2432 52.6944 10 51.3667 10 49.9032V34.3957H13.7372V49.6909C13.7372 50.6823 13.8914 51.585 14.1999 52.3994Z" fill="white"/>
<path d="M36.1604 34.3957V43.4241C36.9909 42.5979 37.952 41.943 39.0435 41.4591C40.135 40.9752 41.3214 40.7332 42.6027 40.7332C43.9316 40.7332 45.1772 40.981 46.34 41.4767C47.5026 41.9724 48.511 42.6451 49.3653 43.4949C50.2196 44.3446 50.8959 45.3477 51.3942 46.5043C51.8925 47.6609 52.1416 48.8883 52.1416 50.1865C52.1416 51.4847 51.8925 52.7062 51.3942 53.8509C50.8959 54.9957 50.2196 55.993 49.3653 56.8426C48.511 57.6924 47.5026 58.3651 46.34 58.8608C45.1772 59.3565 43.9315 59.6042 42.6027 59.6042C41.3214 59.6042 40.1291 59.3623 39.0257 58.8784C37.9223 58.3946 36.9553 57.7396 36.1248 56.9134V59.1794H32.5656V34.3957H36.1604ZM36.5697 52.6295C36.89 53.3848 37.335 54.0457 37.9045 54.6122C38.474 55.1787 39.1384 55.6272 39.8977 55.9577C40.657 56.2881 41.4756 56.4533 42.3536 56.4533C43.2079 56.4533 44.0146 56.2881 44.7739 55.9577C45.5332 55.6272 46.1916 55.1788 46.7493 54.6122C47.3069 54.0458 47.7518 53.3848 48.084 52.6295C48.4162 51.8742 48.5823 51.0599 48.5823 50.1865C48.5823 49.3132 48.4162 48.4929 48.084 47.7258C47.7518 46.9587 47.3069 46.2919 46.7493 45.7254C46.1917 45.159 45.5333 44.7164 44.7739 44.3978C44.0145 44.0791 43.2078 43.9197 42.3536 43.9197C41.4994 43.9197 40.6926 44.0791 39.9333 44.3978C39.1741 44.7165 38.5097 45.159 37.9401 45.7254C37.3707 46.2919 36.9198 46.9587 36.5876 47.7258C36.2554 48.4929 36.0893 49.3132 36.0893 50.1865C36.0892 51.0599 36.2494 51.8742 36.5697 52.6295Z" fill="white"/>
<path d="M54.17 46.5398C54.6445 45.4068 55.2972 44.4096 56.1276 43.5481C56.958 42.6865 57.9429 42.0079 59.0819 41.5123C60.2208 41.0166 61.4547 40.7688 62.7835 40.7688C64.0886 40.7688 65.2987 41.0048 66.414 41.4769C67.5292 41.9489 68.4902 42.604 69.297 43.4419C70.1038 44.2798 70.7326 45.2712 71.1834 46.4159C71.6342 47.5607 71.8596 48.8058 71.8596 50.1513V51.3197H57.0887C57.2074 52.0514 57.4447 52.73 57.8006 53.3554C58.1565 53.9809 58.6014 54.5238 59.1353 54.984C59.6691 55.4444 60.2742 55.8043 60.9505 56.0639C61.6268 56.3235 62.3445 56.4534 63.1039 56.4534C65.2632 56.4534 67.0073 55.5682 68.3361 53.7979L70.9343 55.7098C70.0326 56.9136 68.9175 57.8578 67.5887 58.5422C66.2598 59.2267 64.7649 59.569 63.104 59.569C61.7514 59.569 60.4879 59.3329 59.3133 58.8608C58.1387 58.3888 57.1184 57.7279 56.2524 56.8781C55.3863 56.0283 54.7041 55.0311 54.2058 53.8864C53.7075 52.7416 53.4583 51.4965 53.4583 50.1511C53.4582 48.8766 53.6955 47.6728 54.17 46.5398ZM59.1708 45.1412C58.1624 45.9792 57.4921 47.0944 57.1599 48.487H68.2293C67.9208 47.0944 67.2623 45.9792 66.2538 45.1412C65.2453 44.3034 64.0649 43.8844 62.7124 43.8844C61.3598 43.8844 60.1793 44.3034 59.1708 45.1412Z" fill="white"/>
<path d="M78.5865 45.5484C77.8272 46.3745 77.4475 47.4957 77.4475 48.9119V59.1796H73.8526V41.1228H77.4118V43.3533C77.8627 42.6216 78.45 42.0433 79.1737 41.6184C79.8974 41.1935 80.7576 40.981 81.7542 40.981H82.9999V44.3092H81.505C80.3186 44.3092 79.3458 44.7223 78.5865 45.5484Z" fill="white"/>
</g>
<defs>
<clipPath id="clip0_1953_6867">
<rect width="73" height="25.2086" fill="white" transform="translate(10 34.3957)"/>
</clipPath>
</defs>
</svg>
