<svg width="92" height="92" viewBox="0 0 92 92" fill="none" xmlns="http://www.w3.org/2000/svg">
<rect x="1" y="1" width="90" height="90" rx="4" fill="black"/>
<rect x="1" y="1" width="90" height="90" rx="4" stroke="#E9ECF5"/>
<path d="M11.8004 9.17399C9.38451 9.75938 7.50441 11.7014 6.99678 14.1172C6.86518 14.7584 6.84637 18.0662 6.84637 47.6514C6.84637 70.1376 6.87458 80.6652 6.94978 81.0833C7.307 83.2855 9.00849 85.2646 11.2364 86.073L11.9697 86.3332L45.7175 86.3611C83.4041 86.3889 80.1139 86.4447 81.5616 85.7292C83.3007 84.8558 84.4946 83.397 84.974 81.5665C85.1526 80.8789 85.1526 80.1727 85.1526 47.6885C85.1526 10.7164 85.209 13.9964 84.4758 12.5283C83.7519 11.0695 82.3325 9.86158 80.6874 9.28548L79.9353 9.02532L46.2345 9.00674C13.2105 8.98815 12.5149 8.99744 11.8004 9.17399ZM64.5749 34.7729C66.9908 35.1818 69.2469 36.2503 71.1646 37.9043L71.7193 38.3781L69.4914 40.5803L67.2634 42.7825L66.69 42.3457C65.4209 41.3608 64.3023 40.9427 62.77 40.8684C61.0591 40.794 59.8182 41.1285 58.427 42.0577C57.1485 42.9218 56.2084 44.2041 55.7196 45.7744C55.541 46.3319 55.494 46.685 55.494 47.5863C55.494 49.1752 55.7948 50.2066 56.6315 51.461C58.3236 53.9791 61.7359 55.0477 64.7817 53.9977C65.5337 53.7468 66.2952 53.3101 66.8592 52.8176L67.2634 52.4738L69.4914 54.6853L71.7287 56.8967L71.0988 57.4449C69.3973 58.9409 67.2728 59.9723 64.9133 60.4741C63.6536 60.7342 61.3787 60.7528 60.0532 60.5112C55.4376 59.6843 51.574 56.4879 49.9665 52.1858C49.3649 50.5876 49.1957 49.5748 49.1957 47.6792C49.1957 45.8209 49.3273 44.9753 49.8255 43.5165C51.3578 38.9821 55.3342 35.5999 60.1002 34.7729C61.1531 34.5871 63.475 34.5871 64.5749 34.7729ZM26.6156 42.6803C26.6438 49.3704 26.6626 50.2438 26.8037 50.6991C27.3301 52.4181 28.5803 53.7561 30.2348 54.3879C31.0809 54.7131 32.5568 54.7875 33.4498 54.5552C35.1983 54.1092 36.6272 52.8362 37.3134 51.1172C37.4625 50.7489 37.5398 50.3556 37.5412 49.9583L37.5672 42.8661L37.5954 35.1818H40.7822H43.9784V42.2807C43.9784 46.4713 43.9408 49.7699 43.8844 50.3367C43.3485 55.6237 39.4943 59.7865 34.2113 60.7714C33.1866 60.9665 31.0903 60.9665 30.0562 60.7807C27.6309 60.3347 25.5534 59.2568 23.8143 57.5286C22.4418 56.172 21.5206 54.7317 20.9471 53.0406C20.3267 51.1823 20.3549 51.6097 20.3173 43.0055L20.2797 35.1818H23.4289H26.578L26.6156 42.6803Z" fill="black"/>
<path fill-rule="evenodd" clip-rule="evenodd" d="M72.3775 35.4284C70.3673 33.6947 68.0025 32.5746 65.4701 32.1461C64.3172 31.9513 61.8833 31.9513 60.7797 32.1461C55.7839 33.0129 51.6158 36.5582 50.0097 41.3112C49.4875 42.8403 49.3495 43.7266 49.3495 45.6746C49.3495 47.6615 49.5269 48.7231 50.1575 50.3983C51.8425 54.9078 55.8923 58.2583 60.7305 59.1251C62.1198 59.3783 64.5044 59.3589 65.8248 59.0861C68.2981 58.5602 70.525 57.4791 72.3085 55.911L72.9687 55.3364L70.6235 53.0183L68.2882 50.7003L67.8645 51.0606C67.2733 51.5768 66.4751 52.0346 65.6869 52.2976C62.4943 53.3982 58.9174 52.2781 57.1437 49.6386C56.2668 48.3238 55.9515 47.2427 55.9515 45.5772C55.9515 44.6324 56.0007 44.2623 56.1879 43.6779C56.7003 42.0319 57.6857 40.6878 59.0258 39.782C60.4841 38.8081 61.7848 38.4574 63.5782 38.5353C65.1843 38.6133 66.3569 39.0516 67.6871 40.084L68.2882 40.5417L70.6235 38.2334L72.9589 35.9251L72.3775 35.4284ZM25.8781 48.84C25.7303 48.3627 25.7106 47.4472 25.681 40.4346L25.6416 32.5746H22.3406H19.0397L19.0791 40.7755C19.1101 47.8667 19.0984 49.1054 19.4081 50.2578C19.4923 50.5711 19.6003 50.878 19.7393 51.2944C20.3404 53.067 21.306 54.5767 22.7446 55.9987C24.5676 57.8102 26.7452 58.9401 29.2875 59.4076C30.3714 59.6024 32.5687 59.6024 33.6428 59.3978C39.1805 58.3654 43.2205 54.002 43.7822 48.4601C43.8413 47.866 43.8807 44.4084 43.8807 40.0158V32.5746H40.5305H37.1901L37.1605 40.6294L37.1333 48.0634C37.1318 48.4799 37.0507 48.8922 36.8945 49.2783C36.1752 51.0801 34.6774 52.4144 32.8446 52.8819C31.9085 53.1254 30.3615 53.0475 29.4747 52.7066C27.7404 52.0443 26.4299 50.6418 25.8781 48.84Z" fill="white"/>
</svg>
