<svg width="92" height="92" viewBox="0 0 92 92" fill="none" xmlns="http://www.w3.org/2000/svg">
<rect x="1" y="1" width="90" height="90" rx="4" fill="#E23744"/>
<rect x="1" y="1" width="90" height="90" rx="4" stroke="#E9ECF5"/>
<path d="M20.2782 42.09L20.2116 44.2794L14.6285 50.4864C16.9607 50.4864 18.4395 50.4631 19.2923 50.4147C19.0451 51.5926 18.8441 52.5556 18.6416 53.9994C17.5201 53.9025 15.7716 53.8783 14.0223 53.8783C12.0722 53.8783 10.3678 53.9022 9 53.9994L9.04558 51.7852L14.6285 45.603C12.1844 45.603 11.2872 45.6266 10.2787 45.6508C10.5022 44.544 10.6594 43.3176 10.8163 42.09C12.5875 42.162 13.2825 42.1857 15.5922 42.1857C17.7226 42.186 18.9326 42.162 20.2782 42.09ZM26.6242 41.4397C22.9908 41.4397 20.2116 44.7598 20.2116 48.7308C20.2116 51.7137 21.8929 53.9994 25.1664 53.9994C28.8214 53.9994 31.5793 50.6787 31.5793 46.6843C31.5796 43.7266 29.9421 41.4397 26.6242 41.4397ZM25.5252 50.8082C24.7177 50.8082 24.2473 50.0614 24.2473 48.594C24.2473 46.4046 25.1217 44.6487 26.1986 44.6487C26.9827 44.6487 27.4536 45.3711 27.4536 46.8617C27.4533 49.0269 26.602 50.8082 25.5252 50.8082ZM77.9795 41.275C74.2996 41.275 71.4832 44.639 71.4832 48.66C71.4832 51.6834 73.1867 53.9994 76.5031 53.9994C80.2057 53.9994 83 50.6351 83 46.589C83.0003 43.5913 81.3427 41.275 77.9795 41.275ZM76.797 50.7955C75.9892 50.7955 75.5192 50.0487 75.5192 48.5813C75.5192 46.3919 76.3938 44.6363 77.4704 44.6363C78.2542 44.6363 78.726 45.358 78.726 46.849C78.7254 49.0151 77.8733 50.7955 76.797 50.7955ZM50.4357 45.771C50.7276 43.7266 50.5707 41.8735 48.3513 41.8735C46.7366 41.8735 44.9878 43.2692 43.7547 45.603C44.024 43.6775 43.8666 41.8735 41.6694 41.8735C40.0103 41.8735 38.2165 43.3409 36.9828 45.771C37.2968 44.1831 37.2299 42.3782 37.1399 41.9934C35.8621 42.2102 34.7414 42.3301 33.1715 42.3782C33.2164 43.4853 33.149 44.9279 32.9471 46.3005L32.4315 49.9088C32.2296 51.3289 32.0052 52.9649 31.7808 53.9997H35.9515C35.9743 53.3733 36.1315 52.3873 36.2434 51.5212L36.6021 49.0436C36.8934 47.4306 38.1487 45.5309 39.1128 45.5309C39.6734 45.5309 39.6515 46.084 39.4943 47.1185L39.0906 49.9085C38.8881 51.3286 38.6646 52.9646 38.44 53.9994H42.6553C42.6781 53.373 42.8125 52.387 42.9244 51.5209L43.2829 49.0433C43.5747 47.4303 44.8309 45.5306 45.7944 45.5306C46.3556 45.5306 46.3334 46.0592 46.2429 46.7815L45.2359 53.9991H49.083L50.4357 45.771ZM70.5789 50.2221L70.1305 53.0615C69.4352 53.4463 68.1345 54 66.6323 54C64.0761 54 63.561 52.6044 63.9639 49.6451L64.6145 44.8812H63.3565L63.7117 41.7975L65.0851 41.7297L65.6011 39.4922L69.4796 38L68.9867 41.7294H71.6552C71.5658 42.1142 71.2508 44.2322 71.1626 44.8809H68.5602L67.9771 49.2839C67.8202 50.4147 67.9105 50.824 68.6718 50.824C69.2336 50.8234 70.0624 50.4864 70.5789 50.2221ZM55.8665 51.7558C57.2781 51.5769 58.2496 50.1852 58.4831 48.7965L58.5225 48.4245C57.916 48.2858 57.0392 48.1802 56.1891 48.2864C55.3795 48.3872 54.7058 48.7315 54.3435 49.2298C54.0703 49.5876 53.933 50.0157 53.994 50.5261C54.086 51.2905 54.9127 51.8748 55.8665 51.7558ZM54.665 53.9549C52.6726 54.2053 51.3604 53.3963 50.9665 51.5566C50.7193 50.3989 51.0624 49.0802 51.6624 48.2934C52.466 47.2644 53.7755 46.6038 55.3736 46.4043C56.6597 46.2411 57.7434 46.3217 58.7569 46.5178L58.7989 46.3401C58.828 46.0559 58.8573 45.7722 58.8167 45.4325C58.7116 44.5603 58.0391 44.0408 56.3785 44.2497C55.2582 44.3905 54.1923 44.8043 53.3647 45.2754L52.5595 42.7872C53.6814 42.1284 55.0954 41.6271 56.7136 41.424C59.8048 41.0362 61.9768 42.0443 62.2551 44.362C62.3288 44.9784 62.3376 45.6317 62.2616 46.2245C61.8646 49.0902 61.6104 51.2466 61.4988 52.6919C61.4807 52.9156 61.4822 53.3001 61.5017 53.845L57.6659 53.8414C57.7475 53.6155 57.8207 53.3092 57.8858 52.925C57.929 52.6722 57.9598 52.3534 57.979 51.9671C57.1683 53.1048 56.0538 53.7805 54.665 53.9549Z" fill="white"/>
</svg>
